<?xml version="1.0" encoding="UTF-8" standalone="yes"?>
<svg width="39mm" height="39mm" viewBox="0 0 39 39" version="1.2" baseProfile="tiny-ps" xmlns="http://www.w3.org/2000/svg">
  <title>bimi-svg-tiny-12-ps</title>
  <defs id="defs1433"/>
  <rect id="rect1107-2" width="39" height="39" x="4.9938541e-07" y="4.9938541e-07" fill="#123499" fill-opacity="1" stroke="#000000" stroke-width="0" stroke-miterlimit="4" stroke-dasharray="none"/>
  <g id="text1111-1" transform="translate(-112.01172,-110.07186)" font-style="normal" font-weight="normal" font-size="7.76109px" font-family="sans-serif" fill="#ffffff" fill-opacity="1" stroke="none" stroke-width="0.529164">
    <path d="m 117.31335,138.94122 v -3.72896 q 0,-0.69349 0.42064,-1.13309 0.42065,-0.43959 1.09141,-0.43959 0.79581,0 1.22404,0.73139 0.26148,-0.39412 0.56086,-0.56086 0.29937,-0.17053 0.73897,-0.17053 0.69728,0 1.06866,0.43959 0.37138,0.4396 0.37138,1.26573 v 3.59632 h -1.53857 v -3.36516 q 0,-0.25011 -0.0417,-0.32969 -0.0379,-0.0834 -0.15916,-0.0834 -0.22738,0 -0.22738,0.38654 v 3.39168 h -1.53857 v -3.36516 q 0,-0.24632 -0.0417,-0.32969 -0.0417,-0.0834 -0.16295,-0.0834 -0.22737,0 -0.22737,0.41306 v 3.36516 z" id="path1459" font-style="normal" font-variant="normal" font-weight="normal" font-size="7.76109px" font-family="'Bauhaus 93'" fill="#ffffff" stroke-width="0.529164"/>
    <path d="m 126.17342,133.63958 q 1.09898,0 1.88343,0.7996 0.78824,0.79961 0.78824,1.91375 0,1.13309 -0.79203,1.92511 -0.79202,0.79203 -1.92511,0.79203 -1.12551,0 -1.92133,-0.79582 -0.79581,-0.79581 -0.79581,-1.92132 0,-1.13688 0.7996,-1.92511 0.8034,-0.78824 1.96301,-0.78824 z m -0.0455,1.52342 q -0.4737,0 -0.80719,0.34864 -0.33348,0.34864 -0.33348,0.84129 0,0.49265 0.33348,0.84129 0.33728,0.34864 0.80719,0.34864 0.47749,0 0.80718,-0.34485 0.33348,-0.34864 0.33348,-0.84508 0,-0.49644 -0.33348,-0.84129 -0.32969,-0.34864 -0.80718,-0.34864 z" id="path1461" font-style="normal" font-variant="normal" font-weight="normal" font-size="7.76109px" font-family="'Bauhaus 93'" fill="#ffffff" stroke-width="0.529164"/>
    <path d="m 131.51296,136.20514 v 1.38699 h -0.51159 v 1.34909 h -1.53858 v -3.20978 q 0,-0.90572 0.55707,-1.49689 0.56086,-0.59497 1.40973,-0.59497 0.93603,0 1.5651,0.80718 l -1.26193,0.92088 q -0.10611,-0.29559 -0.37517,-0.29559 -0.35622,0 -0.35622,0.49264 v 0.64045 z" id="path1463" font-style="normal" font-variant="normal" font-weight="normal" font-size="7.76109px" font-family="'Bauhaus 93'" fill="#ffffff" stroke-width="0.529164"/>
    <path d="m 134.84401,133.76843 v 5.17279 h -1.53857 v -5.17279 z" id="path1465" font-style="normal" font-variant="normal" font-weight="normal" font-size="7.76109px" font-family="'Bauhaus 93'" fill="#ffffff" stroke-width="0.529164"/>
    <path d="m 138.06896,136.04218 h 1.46657 q 0.4737,0.58739 0.4737,1.2392 0,0.75792 -0.55707,1.2733 -0.55328,0.51539 -1.36425,0.51539 -1.05351,0 -1.78869,-0.79961 -0.73518,-0.7996 -0.73518,-1.94785 0,-1.15203 0.74655,-1.91753 0.75034,-0.7655 1.87206,-0.7655 0.38275,0 0.84887,0.15537 v 1.53858 q -0.3638,-0.17053 -0.66318,-0.17053 -0.54191,0 -0.88677,0.33727 -0.34106,0.33728 -0.34106,0.8754 0,0.54949 0.31833,0.8716 0.31832,0.32212 0.86023,0.32212 0.34486,0 0.34486,-0.20085 0,-0.15158 -0.22738,-0.15158 h -0.36759 z" id="path1467" font-style="normal" font-variant="normal" font-weight="normal" font-size="7.76109px" font-family="'Bauhaus 93'" fill="#ffffff" stroke-width="0.529164"/>
    <path d="m 143.08638,133.63958 q 1.09899,0 1.88343,0.7996 0.78824,0.79961 0.78824,1.91375 0,1.13309 -0.79203,1.92511 -0.79202,0.79203 -1.92511,0.79203 -1.12551,0 -1.92133,-0.79582 -0.79581,-0.79581 -0.79581,-1.92132 0,-1.13688 0.7996,-1.92511 0.8034,-0.78824 1.96301,-0.78824 z m -0.0455,1.52342 q -0.4737,0 -0.80719,0.34864 -0.33348,0.34864 -0.33348,0.84129 0,0.49265 0.33348,0.84129 0.33728,0.34864 0.80719,0.34864 0.47749,0 0.80718,-0.34485 0.33349,-0.34864 0.33349,-0.84508 0,-0.49644 -0.33349,-0.84129 -0.32969,-0.34864 -0.80718,-0.34864 z" id="path1469" font-style="normal" font-variant="normal" font-weight="normal" font-size="7.76109px" font-family="'Bauhaus 93'" fill="#ffffff" stroke-width="0.529164"/>
  </g>
  <path id="path1113-8" d="m 17.580782,7.9574408 a 0.58698872,0.58698872 0 0 0 -0.37345,0.1372 l -3.71339,3.1158902 a 0.58698872,0.58698872 0 0 0 -0.20968,0.44968 0.58698872,0.58698872 0 0 0 0.21284,0.45229 l 0.64159,0.5383 a 0.58698872,0.58698872 0 0 0 0.37731,0.1374 0.58698872,0.58698872 0 0 0 0.3773,-0.1374 l 3.33604,-2.7992697 0.3809,0.3196197 -2.79417,2.34461 a 0.58698872,0.58698872 0 0 0 -10e-4,0.001 l -1.6e-4,2.2e-4 a 0.58698872,0.58698872 0 0 0 -0.20968,0.44968 0.58698872,0.58698872 0 0 0 0,0.002 v 3.32811 a 0.58698872,0.58698872 0 0 0 0.21333,0.45272 l 3.32778,2.79239 6e-5,-4e-5 a 0.58698872,0.58698872 0 0 0 0.3773,0.1374 0.58698872,0.58698872 0 0 0 0.3773,-0.1372 l 3.33127,-2.79529 a 0.58698872,0.58698872 0 0 0 0.20984,-0.44982 0.58698872,0.58698872 0 0 0 0,-0.002 v -1.17018 a 0.58698872,0.58698872 0 0 0 -0.20968,-0.44964 l -1.95663,-1.64177 a 0.58698872,0.58698872 0 0 0 -0.002,-0.002 l -0.002,-0.002 a 0.58698872,0.58698872 0 0 0 -0.37731,-0.1374 0.58698872,0.58698872 0 0 0 -0.58698,0.587 0.58698872,0.58698872 0 0 0 0.20968,0.44966 0.58698872,0.58698872 0 0 0 0.003,0.002 l 1.74882,1.46747 v 0.62652 l -2.74449,2.30287 -0.58698,-0.49252 v -6.40515 l 2.52586,-2.1194602 3.33603,2.7992702 a 0.58698872,0.58698872 0 0 0 0.37731,0.1372 0.58698872,0.58698872 0 0 0 0.58698,-0.58697 0.58698872,0.58698872 0 0 0 -0.20968,-0.44968 l -0.004,-0.002 a 0.58698872,0.58698872 0 0 0 -5.2e-4,-3.8e-4 l -3.70968,-3.1128702 -6e-5,6e-5 a 0.58698872,0.58698872 0 0 0 -0.37726,-0.1374 0.58698872,0.58698872 0 0 0 -0.3773,0.1374 l -6e-5,-6e-5 -1.56151,1.31029 -1.56146,-1.31029 -6e-5,6e-5 a 0.58698872,0.58698872 0 0 0 -0.37725,-0.1374 0.58698872,0.58698872 0 0 0 -0.004,0 z m 3.95333,2.2352902 a 0.58698872,0.58698872 0 0 0 -0.375,0.1386 l -0.6432,0.53968 a 0.58698872,0.58698872 0 0 0 -0.20968,0.44966 0.58698872,0.58698872 0 0 0 0.21285,0.45232 l 1.9585,1.64341 a 0.58698872,0.58698872 0 0 0 0.3773,0.1374 0.58698872,0.58698872 0 0 0 0.37732,-0.1374 l 0.64454,-0.54086 a 0.58698872,0.58698872 0 0 0 0.20988,-0.44984 0.58698872,0.58698872 0 0 0 -0.20968,-0.4496 l -1.96167,-1.64603 a 0.58698872,0.58698872 0 0 0 -0.3773,-0.1374 0.58698872,0.58698872 0 0 0 -0.004,0 z" fill="#ffffff" stroke="#000000" stroke-width="0" stroke-miterlimit="4" stroke-dasharray="none"/>
</svg>